<svg id="Layer_1" data-name="Layer 1" xmlns="http://www.w3.org/2000/svg" viewBox="0 0 103 16"><defs><style>.cls-1{fill:#fff;}.cls-2{fill:#003fc5;}</style></defs><title>logo-panasonic-blue</title><g id="logo"><g id="logo-2"><path id="パス_25" data-name="パス 25" class="cls-1" d="M101.88,14.15a5.43,5.43,0,0,1-2.94,1.66,7.33,7.33,0,0,1-2.29.12,5.46,5.46,0,0,1-2.82-1.12,6,6,0,0,1-1.64-1.87,5.58,5.58,0,0,1-.65-1.82,6.15,6.15,0,0,1,.12-2.7,5.43,5.43,0,0,1,4.21-4,7.58,7.58,0,0,1,3.48.09,4.49,4.49,0,0,1,2.17,1.2,4.07,4.07,0,0,1,.94,1.24,3.52,3.52,0,0,1,.36,1.83H99.06a2,2,0,0,0-.73-1.25,1.46,1.46,0,0,0-1.76-.08,1.85,1.85,0,0,0-.78,1,5.26,5.26,0,0,0,0,3.07,2.37,2.37,0,0,0,.66,1.12,1.59,1.59,0,0,0,1.34.45,1.3,1.3,0,0,0,.78-.41,1.71,1.71,0,0,0,.41-.87,3.72,3.72,0,0,0,.08-.67h4a4,4,0,0,1-1.1,3" transform="translate(0 0)"/><rect id="長方形_5" data-name="長方形 5" class="cls-1" x="86.76" width="4.09" height="2.95"/><rect id="長方形_6" data-name="長方形 6" class="cls-1" x="86.76" y="4.44" width="4.09" height="11.16"/><path id="パス_26" data-name="パス 26" class="cls-1" d="M78.21,5.64a5.93,5.93,0,0,1,1.72-1.12,4.41,4.41,0,0,1,3.23-.25,3.59,3.59,0,0,1,2.45,2.45,6.14,6.14,0,0,1,.25,1.7V15.6H81.48V9.13a3.19,3.19,0,0,0-.08-.62,1.2,1.2,0,0,0-.7-.79,1.65,1.65,0,0,0-2.09.7,2,2,0,0,0-.24,1V15.6H74.16V4.44h4Z" transform="translate(0 0)"/><path id="パス_27" data-name="パス 27" class="cls-1" d="M29.64,5.64a5.8,5.8,0,0,1,1.72-1.12,4.41,4.41,0,0,1,3.23-.25A3.59,3.59,0,0,1,37,6.72a6.53,6.53,0,0,1,.25,1.7V15.6H33V9.13a3.19,3.19,0,0,0-.08-.62,1.2,1.2,0,0,0-.7-.79,1.63,1.63,0,0,0-2.08.7,1.89,1.89,0,0,0-.25,1V15.6H25.59V4.44h4Z" transform="translate(0 0)"/><path id="パス_28" data-name="パス 28" class="cls-1" d="M55.56,11.49a6.55,6.55,0,0,1,.9.21A.79.79,0,0,1,56.75,13a1.25,1.25,0,0,1-.73.37,1.67,1.67,0,0,1-1.1-.13,1.51,1.51,0,0,1-.45-.29.85.85,0,0,1-.37-.58,2.25,2.25,0,0,1-.08-.58H50V12a2.66,2.66,0,0,0,.2,1.08,3.8,3.8,0,0,0,.9,1.37,4.38,4.38,0,0,0,1.84,1,10.61,10.61,0,0,0,4.38.29,5.5,5.5,0,0,0,2-.67,4.83,4.83,0,0,0,.77-.5A3.41,3.41,0,0,0,61.13,11a3,3,0,0,0-.82-1.29,4.66,4.66,0,0,0-1.84-1L58,8.54A17.83,17.83,0,0,0,55.53,8l-.66-.12a2.29,2.29,0,0,1-.28-.09.49.49,0,0,1-.25-.66h0v0a.79.79,0,0,1,.57-.45,2.08,2.08,0,0,1,1.35,0,1,1,0,0,1,.7,1h3.88a3.52,3.52,0,0,0-.24-1.33,2.45,2.45,0,0,0-.78-1.12,3.33,3.33,0,0,0-1-.58,4.64,4.64,0,0,0-1.14-.33,12,12,0,0,0-2.74-.17,6.35,6.35,0,0,0-1.56.25,4.93,4.93,0,0,0-1.92.91,3.2,3.2,0,0,0-1,1.49,6.11,6.11,0,0,0-.17.83A2.66,2.66,0,0,0,50.5,9a2.83,2.83,0,0,0,1.68,1.7,6.24,6.24,0,0,0,1.18.38c.61.12,1.35.29,2.21.41" transform="translate(0 0)"/><path id="パス_29" data-name="パス 29" class="cls-1" d="M7.48,10.79H4.66V7.14H6.5a7.94,7.94,0,0,0,1,0,1.6,1.6,0,0,0,1.19-.62A1.34,1.34,0,0,0,9,5.81a1.62,1.62,0,0,0,0-.62A1.52,1.52,0,0,0,7.4,3.78H4.66V15.64H0V0H7.65a6.26,6.26,0,0,1,.86,0,5.24,5.24,0,0,1,4.54,3.11,5.36,5.36,0,0,1,.49,2.95,5.1,5.1,0,0,1-4,4.48,9.07,9.07,0,0,1-2.08.21" transform="translate(0 0)"/><path id="パス_30" data-name="パス 30" class="cls-1" d="M68.73,4.23a6.36,6.36,0,0,0-1.23-.08,10.16,10.16,0,0,0-1.23.08,5.54,5.54,0,0,0-3.19,1.62,5.37,5.37,0,0,0-1.63,3.48,6.74,6.74,0,0,0,.2,2.41,5.45,5.45,0,0,0,2,3,5.27,5.27,0,0,0,2.17,1,9.27,9.27,0,0,0,3.43,0,4.92,4.92,0,0,0,2.17-1l-2.37-2.62a1.65,1.65,0,0,1-2.17.84h0a1.58,1.58,0,0,1-.82-.83,4.92,4.92,0,0,1-.33-1.07,7,7,0,0,1,0-2.24,2.65,2.65,0,0,1,.45-1.08,1.58,1.58,0,0,1,2.19-.47,1.51,1.51,0,0,1,.47.47,3,3,0,0,1,.45,1.08,5.82,5.82,0,0,1,0,2.24,3.67,3.67,0,0,1-.32,1.07l2.37,2.62a5.45,5.45,0,0,0,2-3,6,6,0,0,0,.2-2.41A5.38,5.38,0,0,0,72,5.85a6,6,0,0,0-3.27-1.62" transform="translate(0 0)"/><path id="パス_31" data-name="パス 31" class="cls-1" d="M49.43,14.73c-.08-.92-.08-1.7-.12-2.62-.05-1.2-.05-2.24-.05-3.44A6.67,6.67,0,0,0,49,6.84,2.89,2.89,0,0,0,47.59,5a3.87,3.87,0,0,0-1.35-.5,11.39,11.39,0,0,0-4.58-.09,6.72,6.72,0,0,0-1.23.38,3.43,3.43,0,0,0-2,2.15,2.91,2.91,0,0,0-.12,1.17c0,.08,0,.12,0,.2l3.68.09a3,3,0,0,1,.08-.67,1.21,1.21,0,0,1,.7-.7,2.18,2.18,0,0,1,1.47,0,1,1,0,0,1,.66.7.6.6,0,0,1-.08.58,1,1,0,0,1-.41.33c-.13.05-.2.09-.33.13-.53.12-.94.25-1.47.33s-.78.12-1.19.21c-.57.12-1,.25-1.55.41a3,3,0,0,0-1.27.75,2.9,2.9,0,0,0-.9,1.7,3.5,3.5,0,0,0,0,1.29A3.09,3.09,0,0,0,40,15.76a5.48,5.48,0,0,0,3.64-.17,3.64,3.64,0,0,0,1.42-1.07l-.24-1.91a1.52,1.52,0,0,1-.73.62,3.37,3.37,0,0,1-.86.25,1.43,1.43,0,0,1-.74-.08,1.09,1.09,0,0,1-.53-.33,1,1,0,0,1-.25-.46.88.88,0,0,1,.25-.75,3.46,3.46,0,0,1,.45-.29,10.43,10.43,0,0,1,1.23-.41q.75-.24,1.47-.54a5.62,5.62,0,0,1,0,1.16,1.76,1.76,0,0,1-.29.79l.25,1.91c.08.29.16.5.24.75a1.11,1.11,0,0,0,.2.37h4.09c0-.29-.12-.54-.16-.87" transform="translate(0 0)"/><path id="パス_32" data-name="パス 32" class="cls-1" d="M24.78,14.73c-.09-.92-.09-1.7-.13-2.62,0-1.2,0-2.24,0-3.44a7.07,7.07,0,0,0-.24-1.83A2.89,2.89,0,0,0,22.94,5a3.94,3.94,0,0,0-1.35-.5A11.4,11.4,0,0,0,17,4.39a6.72,6.72,0,0,0-1.23.38,3.43,3.43,0,0,0-2,2.15,2.74,2.74,0,0,0-.12,1.17c0,.08,0,.12,0,.2l3.68.09a3,3,0,0,1,.08-.67,1.18,1.18,0,0,1,.7-.7,2.18,2.18,0,0,1,1.47,0,1,1,0,0,1,.66.7.6.6,0,0,1-.09.58.89.89,0,0,1-.41.33l-.32.13C19,8.83,18.57,9,18,9s-.78.12-1.19.21c-.57.12-1,.25-1.55.41a3,3,0,0,0-1.27.75,2.62,2.62,0,0,0-.86,1.7,3.3,3.3,0,0,0,0,1.29,3.09,3.09,0,0,0,2.17,2.36A5.49,5.49,0,0,0,19,15.59a3.64,3.64,0,0,0,1.42-1.07l-.24-1.91a1.62,1.62,0,0,1-.74.63,3.14,3.14,0,0,1-.86.24,1.39,1.39,0,0,1-.73-.08,1,1,0,0,1-.54-.33,1,1,0,0,1-.24-.46.82.82,0,0,1,.24-.74,2.66,2.66,0,0,1,.45-.29A10.48,10.48,0,0,1,19,11.16a12.94,12.94,0,0,0,1.47-.54,5.62,5.62,0,0,1,0,1.16,1.78,1.78,0,0,1-.28.79l.24,1.91c.08.29.17.5.25.75a1.11,1.11,0,0,0,.2.37H25a5,5,0,0,1-.21-.87" transform="translate(0 0)"/></g><path id="Color_Overlay" data-name="Color Overlay" class="cls-2" d="M40,15.77a3.1,3.1,0,0,1-2.17-2.37,3.29,3.29,0,0,1,0-1.29,2.84,2.84,0,0,1,.9-1.7,3,3,0,0,1,1.26-.74c.53-.17,1-.29,1.56-.42.41-.08.78-.12,1.18-.2s.94-.21,1.48-.34l.32-.12a1,1,0,0,0,.41-.33A.58.58,0,0,0,45,7.68.94.94,0,0,0,44.32,7a2.25,2.25,0,0,0-1.47,0,1.15,1.15,0,0,0-.7.71,3,3,0,0,0-.08.66L38.39,8.3c0-.08,0-.12,0-.21a2.86,2.86,0,0,1,.12-1.16,3.38,3.38,0,0,1,2-2.15,6,6,0,0,1,1.23-.38,11.39,11.39,0,0,1,4.58.08,4.31,4.31,0,0,1,1.35.5A2.89,2.89,0,0,1,49,6.84a6.67,6.67,0,0,1,.24,1.83c0,1.2,0,2.24.05,3.44,0,.92,0,1.7.12,2.62,0,.33.12.58.16.87H45.5a1.11,1.11,0,0,1-.2-.37c-.08-.25-.16-.46-.24-.75l-.25-1.91a2,2,0,0,0,.29-.79,5.62,5.62,0,0,0,0-1.16,13.85,13.85,0,0,1-1.48.54,10.93,10.93,0,0,0-1.22.41,2.71,2.71,0,0,0-.45.3.85.85,0,0,0-.25.74,1,1,0,0,0,.25.46,1,1,0,0,0,.53.33,1.4,1.4,0,0,0,.73.08,3.14,3.14,0,0,0,.86-.24,1.57,1.57,0,0,0,.74-.63l.24,1.91a3.72,3.72,0,0,1-1.43,1.08,5.86,5.86,0,0,1-2.07.4A5.45,5.45,0,0,1,40,15.77Zm-24.62,0a3.1,3.1,0,0,1-2.16-2.37,3.5,3.5,0,0,1-.05-1.29,2.71,2.71,0,0,1,.86-1.7,3,3,0,0,1,1.27-.74c.53-.17,1-.29,1.55-.42.41-.08.78-.12,1.19-.2s.94-.21,1.47-.34l.33-.12a1.09,1.09,0,0,0,.41-.33.58.58,0,0,0,.08-.58A.94.94,0,0,0,19.67,7,2.25,2.25,0,0,0,18.2,7a1.17,1.17,0,0,0-.7.71,3,3,0,0,0-.08.66L13.74,8.3c0-.08,0-.12,0-.21a2.7,2.7,0,0,1,.12-1.16,3.38,3.38,0,0,1,2-2.15A6,6,0,0,1,17,4.4a11.4,11.4,0,0,1,4.58.08,4.4,4.4,0,0,1,1.35.5,2.88,2.88,0,0,1,1.43,1.87,7,7,0,0,1,.24,1.83c0,1.2,0,2.23,0,3.44,0,.91,0,1.7.13,2.61a5,5,0,0,0,.2.87H20.89a1,1,0,0,1-.2-.37c-.08-.25-.16-.46-.24-.75l-.25-1.91a2,2,0,0,0,.29-.79,5.62,5.62,0,0,0,0-1.16,13.85,13.85,0,0,1-1.48.54,10.93,10.93,0,0,0-1.22.41,2.71,2.71,0,0,0-.45.3.85.85,0,0,0-.25.74,1,1,0,0,0,.25.46,1,1,0,0,0,.53.33,1.43,1.43,0,0,0,.74.08,2.86,2.86,0,0,0,.85-.25,1.5,1.5,0,0,0,.74-.62l.25,1.91A3.73,3.73,0,0,1,19,15.6a5.86,5.86,0,0,1-2.07.4,5.57,5.57,0,0,1-1.57-.23Zm81.28.16a5.46,5.46,0,0,1-2.82-1.12,5.9,5.9,0,0,1-1.64-1.87,5.58,5.58,0,0,1-.65-1.82,6.15,6.15,0,0,1,.12-2.7,5.4,5.4,0,0,1,4.21-4,7.72,7.72,0,0,1,3.48.08,4.58,4.58,0,0,1,2.17,1.2,4.11,4.11,0,0,1,.94,1.25,3.46,3.46,0,0,1,.36,1.82H99.06a2,2,0,0,0-.73-1.24,1.46,1.46,0,0,0-1.76-.08,1.85,1.85,0,0,0-.78,1,5.26,5.26,0,0,0,0,3.07,2.42,2.42,0,0,0,.66,1.12,1.65,1.65,0,0,0,1.34.45,1.3,1.3,0,0,0,.78-.41,1.71,1.71,0,0,0,.41-.87,3,3,0,0,0,.08-.67h4a4,4,0,0,1-1.1,3,5.4,5.4,0,0,1-3,1.66,7.79,7.79,0,0,1-1.53.17c-.25,0-.51,0-.76-.05Zm-30.83-.12a5.29,5.29,0,0,1-2.16-1,5.4,5.4,0,0,1-2-3,6.71,6.71,0,0,1-.2-2.4,5.37,5.37,0,0,1,1.63-3.49,5.54,5.54,0,0,1,3.19-1.62,10,10,0,0,1,1.22-.08,6.36,6.36,0,0,1,1.23.08A6,6,0,0,1,72,5.85a5.38,5.38,0,0,1,1.64,3.48,6.13,6.13,0,0,1-.2,2.41,5.51,5.51,0,0,1-2,3,4.8,4.8,0,0,1-2.17,1,7.66,7.66,0,0,1-1.72.17,7.74,7.74,0,0,1-1.73-.16Zm.41-8a2.65,2.65,0,0,0-.45,1.08,7,7,0,0,0,0,2.24,5.18,5.18,0,0,0,.33,1.08,1.63,1.63,0,0,0,3,0h0a3.73,3.73,0,0,0,.32-1.08,5.82,5.82,0,0,0,0-2.24,3,3,0,0,0-.45-1.08,1.57,1.57,0,0,0-2.18-.48,1.69,1.69,0,0,0-.48.48ZM52.94,15.52a4.38,4.38,0,0,1-1.84-1,3.93,3.93,0,0,1-.9-1.37A2.66,2.66,0,0,1,50,12v-.25h4a3.68,3.68,0,0,0,.08.58.88.88,0,0,0,.37.58,1.65,1.65,0,0,0,.45.29,1.67,1.67,0,0,0,1.1.13,1.31,1.31,0,0,0,.74-.37.85.85,0,0,0,.2-.75.8.8,0,0,0-.49-.54,7.32,7.32,0,0,0-.9-.21c-.86-.12-1.6-.29-2.21-.41a7.13,7.13,0,0,1-1.19-.37A2.85,2.85,0,0,1,50.49,9a2.59,2.59,0,0,1-.24-1.37,5.79,5.79,0,0,1,.16-.83,3.15,3.15,0,0,1,1-1.49,4.93,4.93,0,0,1,1.92-.91,6.35,6.35,0,0,1,1.56-.25,12,12,0,0,1,2.74.17,5.12,5.12,0,0,1,1.14.33,3.55,3.55,0,0,1,1,.58,2.31,2.31,0,0,1,.78,1.12,3.74,3.74,0,0,1,.25,1.33H57a1,1,0,0,0-.69-1,2.08,2.08,0,0,0-1.35,0,.78.78,0,0,0-.57.45v0a.5.5,0,0,0,.24.67h0l.29.08.65.12A17.53,17.53,0,0,1,58,8.54l.45.13a4.3,4.3,0,0,1,1.84,1A2.83,2.83,0,0,1,61.12,11a3.42,3.42,0,0,1-1.06,3.7,5.19,5.19,0,0,1-.78.5,5.42,5.42,0,0,1-2,.66,11.69,11.69,0,0,1-1.56.11A10.33,10.33,0,0,1,52.94,15.52ZM0,15.64V0H7.64A6.12,6.12,0,0,1,8.5,0,5.23,5.23,0,0,1,13,3.15a5.36,5.36,0,0,1,.49,2.95,5.09,5.09,0,0,1-4,4.48,9.07,9.07,0,0,1-2.08.21H4.66v4.85Zm4.66-8.5H6.5a8,8,0,0,0,1,0,1.63,1.63,0,0,0,1.19-.62A1.34,1.34,0,0,0,9,5.81a1.62,1.62,0,0,0,0-.62A1.52,1.52,0,0,0,7.4,3.78H4.66Zm82.1,8.46V4.44h4.09V15.6Zm-5.27,0V9.13a3.42,3.42,0,0,0-.09-.63,1.26,1.26,0,0,0-.69-.79,1.65,1.65,0,0,0-2.09.71,1.87,1.87,0,0,0-.24.95V15.6H74.16V4.44h4l.08,1.2a5.93,5.93,0,0,1,1.72-1.12,4.36,4.36,0,0,1,3.23-.25,3.57,3.57,0,0,1,2.45,2.45,6.08,6.08,0,0,1,.25,1.7V15.6ZM33,15.6V9.13a4.2,4.2,0,0,0-.08-.62,1.2,1.2,0,0,0-.7-.79,1.63,1.63,0,0,0-2.08.7,1.89,1.89,0,0,0-.25,1V15.6H25.59V4.44h4l.08,1.2a5.8,5.8,0,0,1,1.72-1.12,4.36,4.36,0,0,1,3.23-.25A3.57,3.57,0,0,1,37,6.72a6.47,6.47,0,0,1,.25,1.7V15.6ZM86.76,3V0h4.09V2.94Z" transform="translate(0 0)"/></g></svg>